<?xml version="1.0" encoding="UTF-8"?>
<svg width="44px" height="46px" viewBox="0 0 44 46" version="1.1" xmlns="http://www.w3.org/2000/svg" xmlns:xlink="http://www.w3.org/1999/xlink">
    <!-- Generator: Sketch 54.1 (76490) - https://sketchapp.com -->
    <title>icon/icon_passward</title>
    <desc>Created with Sketch.</desc>
    <defs>
        <filter x="-9.4%" y="-9.3%" width="118.9%" height="119.0%" filterUnits="objectBoundingBox" id="filter-1">
            <feOffset dx="0" dy="0" in="SourceAlpha" result="shadowOffsetOuter1"></feOffset>
            <feGaussianBlur stdDeviation="7.5" in="shadowOffsetOuter1" result="shadowBlurOuter1"></feGaussianBlur>
            <feColorMatrix values="0 0 0 0 0.636245146   0 0 0 0 0.681654988   0 0 0 0 0.711928216  0 0 0 0.112489073 0" type="matrix" in="shadowBlurOuter1" result="shadowMatrixOuter1"></feColorMatrix>
            <feMerge>
                <feMergeNode in="shadowMatrixOuter1"></feMergeNode>
                <feMergeNode in="SourceGraphic"></feMergeNode>
            </feMerge>
        </filter>
    </defs>
    <g id="页面1" stroke="none" stroke-width="1" fill="none" fill-rule="evenodd">
        <g id="01_01登录" transform="translate(-458.000000, -470.000000)" fill="#8794B3">
            <g id="Group" filter="url(#filter-1)" transform="translate(400.000000, 164.000000)">
                <g id="编组-3" transform="translate(72.000000, 320.000000)">
                    <g id="icon/icon_passward" transform="translate(1.000000, 0.000000)">
                        <g>
                            <path d="M12.0133282,6.49151282 L11.5342769,6.49151282 L11.5342769,4.53429487 C11.5342769,2.0342 9.50009487,0 6.99967692,0 C4.49988718,0 2.46570513,2.03418205 2.46570513,4.53429487 L2.46570513,6.49151282 L1.98665385,6.49151282 C0.900307692,6.49151282 0.0165846154,7.37521795 0.0165846154,8.46158205 L0.0165846154,15.0736744 C0.0165846154,16.1600205 0.900289744,17.0437436 1.98665385,17.0437436 L12.0133282,17.0437436 C13.0996744,17.0437436 13.9833974,16.1600385 13.9833974,15.0736744 L13.9833974,8.46158205 C13.9834154,7.3752359 13.0997103,6.49151282 12.0133282,6.49151282 L12.0133282,6.49151282 Z M3.77906667,4.53425897 C3.77906667,2.75817949 5.22390256,1.31332564 6.99965897,1.31332564 C8.77606154,1.31332564 10.2208974,2.75816154 10.2208974,4.53425897 L10.2208974,6.49147692 L3.77906667,6.49147692 L3.77908462,4.53425897 L3.77906667,4.53425897 Z M12.6700179,15.0736564 C12.6700179,15.4356821 12.375659,15.7303462 12.0133282,15.7303462 L1.98665385,15.7303462 C1.62432308,15.7303462 1.3299641,15.4356641 1.3299641,15.0736564 L1.3299641,8.4615641 C1.3299641,8.09953846 1.62432308,7.80487436 1.98665385,7.80487436 L12.0133282,7.80487436 C12.375659,7.80487436 12.6700179,8.09955641 12.6700179,8.4615641 L12.6700179,15.0736564 Z" id="形状" fill-rule="nonzero"></path>
                            <path d="M5.56112308,10.7714692 C5.56112308,11.5661128 6.20530256,12.2103103 6.9999641,12.2103103 C7.79460769,12.2103103 8.43880513,11.5661308 8.43880513,10.7714692 C8.43880513,9.97682564 7.79462564,9.33262821 6.9999641,9.33262821 C6.20532051,9.33262821 5.56112308,9.97680769 5.56112308,10.7714692 L5.56112308,10.7714692 Z" id="路径" fill-rule="nonzero"></path>
                        </g>
                    </g>
                </g>
            </g>
        </g>
    </g>
</svg>