<?xml version="1.0" encoding="UTF-8"?>
<svg width="110px" height="110px" viewBox="0 0 110 110" version="1.1" xmlns="http://www.w3.org/2000/svg" xmlns:xlink="http://www.w3.org/1999/xlink">
    <!-- Generator: Sketch 54.1 (76490) - https://sketchapp.com -->
    <title>icon/icon_userhead_login</title>
    <desc>Created with Sketch.</desc>
    <defs>
        <filter x="-9.4%" y="-9.3%" width="118.9%" height="119.0%" filterUnits="objectBoundingBox" id="filter-1">
            <feOffset dx="0" dy="0" in="SourceAlpha" result="shadowOffsetOuter1"></feOffset>
            <feGaussianBlur stdDeviation="7.5" in="shadowOffsetOuter1" result="shadowBlurOuter1"></feGaussianBlur>
            <feColorMatrix values="0 0 0 0 0.636245146   0 0 0 0 0.681654988   0 0 0 0 0.711928216  0 0 0 0.112489073 0" type="matrix" in="shadowBlurOuter1" result="shadowMatrixOuter1"></feColorMatrix>
            <feMerge>
                <feMergeNode in="shadowMatrixOuter1"></feMergeNode>
                <feMergeNode in="SourceGraphic"></feMergeNode>
            </feMerge>
        </filter>
        <circle id="path-2" cx="33" cy="33" r="33"></circle>
        <filter x="-27.3%" y="-27.3%" width="154.5%" height="154.5%" filterUnits="objectBoundingBox" id="filter-4">
            <feOffset dx="0" dy="0" in="SourceAlpha" result="shadowOffsetOuter1"></feOffset>
            <feGaussianBlur stdDeviation="6" in="shadowOffsetOuter1" result="shadowBlurOuter1"></feGaussianBlur>
            <feColorMatrix values="0 0 0 0 0.675843062   0 0 0 0 0.733329832   0 0 0 0 0.841117527  0 0 0 0.887237762 0" type="matrix" in="shadowBlurOuter1"></feColorMatrix>
        </filter>
    </defs>
    <g id="页面1" stroke="none" stroke-width="1" fill="none" fill-rule="evenodd">
        <g id="01_01登录" transform="translate(-571.000000, -142.000000)">
            <g id="Group" filter="url(#filter-1)" transform="translate(400.000000, 164.000000)">
                <g id="icon/icon_userhead_login" transform="translate(193.000000, 0.000000)">
                    <g>
                        <mask id="mask-3" fill="white">
                            <use xlink:href="#path-2"></use>
                        </mask>
                        <g id="蒙版">
                            <use fill="black" fill-opacity="1" filter="url(#filter-4)" xlink:href="#path-2"></use>
                            <use fill="#5E7EFF" fill-rule="evenodd" xlink:href="#path-2"></use>
                        </g>
                        <g id="头像-(3)" mask="url(#mask-3)" fill="#FFFFFF" fill-rule="nonzero">
                            <g transform="translate(10.000000, 13.400000)" id="路径">
                                <path d="M31.6854928,32.8192308 C30.0044297,37.9153846 27.559247,41.2788462 27.559247,41.2788462 L23.4330011,35.2144231 C25.9291251,35.2144231 28.4761905,32.8192308 29.5459579,31.6980769 C29.0365449,31.035577 28.6290144,29.7615385 29.393134,27.4682692 C32.7552603,23.9519231 35.4042082,18.3971154 35.4042082,12.8932692 C35.4042082,4.43365385 29.6987819,0 23.0254707,0 C16.3521595,0 10.6467331,4.43365385 10.6467331,12.8932692 C10.6467331,18.3971154 13.2447397,24.0028847 16.7087486,27.4682692 C17.4728682,29.5067308 17.0143965,30.7807692 16.3521595,31.5451924 C17.3200443,32.6153846 19.9689922,35.2144231 22.5669989,35.2144231 L18.440753,41.2788462 C18.440753,41.2788462 15.944629,37.8644231 14.3145072,32.7682692 L14.3145072,32.7173077 C7.53931333,35.2653847 -7.04920228e-08,39.5971154 0,43.8778846 L0,45.5596154 C0,51.6240385 11.9712071,53 23.0764119,53 C34.1816169,53 46,51.6240385 46,45.5596154 L46,43.8778846 C46,39.4951924 38.6644518,35.2653847 31.6854928,32.8192308 Z"></path>
                            </g>
                        </g>
                    </g>
                </g>
            </g>
        </g>
    </g>
</svg>