<?xml version="1.0" encoding="UTF-8"?>
<svg width="42px" height="44px" viewBox="0 0 42 44" version="1.1" xmlns="http://www.w3.org/2000/svg" xmlns:xlink="http://www.w3.org/1999/xlink">
    <!-- Generator: Sketch 54.1 (76490) - https://sketchapp.com -->
    <title>icon/icon_user</title>
    <desc>Created with Sketch.</desc>
    <defs>
        <filter x="-9.4%" y="-9.3%" width="118.9%" height="119.0%" filterUnits="objectBoundingBox" id="filter-1">
            <feOffset dx="0" dy="0" in="SourceAlpha" result="shadowOffsetOuter1"></feOffset>
            <feGaussianBlur stdDeviation="7.5" in="shadowOffsetOuter1" result="shadowBlurOuter1"></feGaussianBlur>
            <feColorMatrix values="0 0 0 0 0.636245146   0 0 0 0 0.681654988   0 0 0 0 0.711928216  0 0 0 0.112489073 0" type="matrix" in="shadowBlurOuter1" result="shadowMatrixOuter1"></feColorMatrix>
            <feMerge>
                <feMergeNode in="shadowMatrixOuter1"></feMergeNode>
                <feMergeNode in="SourceGraphic"></feMergeNode>
            </feMerge>
        </filter>
    </defs>
    <g id="页面1" stroke="none" stroke-width="1" fill="none" fill-rule="evenodd">
        <g id="01_01登录" transform="translate(-459.000000, -412.000000)" fill="#8794B3">
            <g id="Group" filter="url(#filter-1)" transform="translate(400.000000, 164.000000)">
                <g id="编组-2" transform="translate(72.000000, 261.000000)">
                    <g id="icon/icon_user" transform="translate(1.000000, 1.000000)">
                        <g>
                            <path d="M8.46511628,5.73867087 C8.45903065,5.49712672 8.2521191,5.30691069 7.99652249,5.30691069 C7.74092588,5.30691069 7.53705716,5.49712672 7.52792871,5.73867087 L7.52792871,5.74470947 C7.52792871,6.0889099 7.2175614,6.36668569 6.83720929,6.36970499 C6.45685719,6.36970499 6.14648988,6.0889099 6.14648988,5.74470947 C6.14648988,5.50014601 5.93653553,5.30087208 5.6778961,5.30087209 C5.41925666,5.30087211 5.20930231,5.50014603 5.20930233,5.74470947 C5.20930233,6.57803682 5.93957835,7.25436047 6.83720929,7.25436047 C7.73484024,7.25436047 8.46511628,6.57803682 8.46511628,5.74470947 L8.46511628,5.73867087 L8.46511628,5.73867087 Z" id="路径" fill-rule="nonzero"></path>
                            <path d="M12.8246324,15.068314 L1.16940124,15.068314 C0.856168767,15.068314 0.563818453,14.9464068 0.343064132,14.7263792 C0.12230981,14.5063515 0,14.2119903 0,13.9027623 C0,13.0167052 0.18793949,12.1574081 0.560835281,11.3456847 L0.560835281,11.3427113 C0.921798414,10.5636946 1.43490303,9.870905 2.08225015,9.27920914 C2.53270828,8.86591403 3.0368634,8.51803255 3.58576604,8.23259133 C3.25165139,7.89362987 2.96526742,7.50709488 2.7445131,7.08785308 C2.39249947,6.40993017 2.19859365,5.64280689 2.19859365,4.87271025 C2.19859365,2.23535229 4.34945664,0.0915697674 6.99552524,0.0915697674 C8.27232046,0.0915697674 9.47453653,0.585145224 10.378436,1.48012239 C11.2823354,2.37509955 11.7835073,3.57038468 11.7924568,4.8429768 C11.7984232,5.61902012 11.6104837,6.3920901 11.2554869,7.0759597 C11.0347326,7.50114819 10.7453654,7.89362987 10.4082676,8.23556467 C10.9571703,8.51803255 11.4613254,8.86888738 11.9117835,9.28218249 C12.5621138,9.87387836 13.0722352,10.5696413 13.4331984,11.3456847 C13.8090773,12.1544348 13.9970168,13.0137318 14,13.9057356 C14,14.217937 13.8776902,14.5093249 13.6569359,14.7293525 C13.4302152,14.9464068 13.1348817,15.068314 12.8246324,15.068314 L12.8246324,15.068314 Z M1.59002771,11.8154733 C1.28574474,12.4785295 1.13360325,13.1802392 1.13360323,13.899789 C1.13360323,13.9027623 1.13360323,13.9146557 1.14553591,13.9235757 C1.15448541,13.9324958 1.16641807,13.9324958 1.16940124,13.9324958 L12.8246324,13.9324958 C12.8276156,13.9324958 12.8365651,13.9324958 12.8484978,13.9235757 C12.8604304,13.9116823 12.8604304,13.9027623 12.8604304,13.899789 C12.8604304,13.1742925 12.7053058,12.4725828 12.4010228,11.8154733 C12.1056893,11.1762039 11.6820797,10.6053215 11.1451097,10.1147194 C10.6081398,9.62411728 9.98167482,9.23758229 9.28063073,8.9670078 L9.26869806,8.96106111 C9.05092691,8.87186073 8.89878542,8.67264655 8.86895376,8.4377522 C8.84210526,8.20285786 8.94353293,7.97093687 9.13445557,7.83416294 C10.0950352,7.14434666 10.6648199,6.02636853 10.6588536,4.84892349 C10.6499041,2.85083492 9.00617942,1.22441461 7.00149159,1.22441461 C4.98188793,1.22441461 3.34114638,2.85975495 3.34114638,4.87271025 C3.34114638,6.04123525 3.91093117,7.15029334 4.86554443,7.8371363 C5.05646707,7.97391022 5.1608779,8.20583121 5.13104624,8.44072555 C5.10419774,8.6756199 4.94907309,8.87483408 4.72831877,8.96403445 L4.71936927,8.9670078 C4.02130833,9.23758229 3.39484338,9.62411728 2.85787343,10.1147194 C2.31195397,10.6023481 1.88834433,11.1762039 1.59002771,11.8154733 L1.59002771,11.8154733 Z" id="形状" fill-rule="nonzero"></path>
                            <path d="M6.82321613,13.3861434 L6.28000753,12.985196 C6.21572248,12.9369617 6.18036571,12.8676249 6.18679422,12.7952735 L6.43429163,9.67511842 C6.43429163,9.4188738 6.68821755,9.20784882 7,9.20784884 C7.31178246,9.20784885 7.56570838,9.41585917 7.56570838,9.67511842 L7.81320578,12.7952735 C7.81963428,12.8676249 7.78427751,12.9399763 7.71999247,12.985196 L7.17035536,13.3861434 C7.07071353,13.4584948 6.92285795,13.4584948 6.82321613,13.3861434 Z" id="路径" fill-rule="nonzero"></path>
                        </g>
                    </g>
                </g>
            </g>
        </g>
    </g>
</svg>